<svg width="3000" height="3000" viewBox="0 0 3000 3000" fill="none" xmlns="http://www.w3.org/2000/svg">
<path fill-rule="evenodd" clip-rule="evenodd" d="M1543.87 83.3741C1539.43 83.3432 1534.97 83.3278 1530.48 83.3278C1260.78 83.3278 1068.66 138.899 954.131 250.04C843.295 357.477 787.876 509.37 787.876 705.72L738 1928.28V2167.23C738 2348.76 760.167 2495.1 804.502 2606.24C848.836 2713.68 926.422 2793.33 1037.26 2845.19C1148.09 2893.35 1303.27 2917.44 1502.77 2917.44C1512.98 2917.44 1523.07 2917.36 1533.05 2917.2L1409.26 2702.2C1300.82 2691.47 1223 2659.48 1175.8 2606.24C1116.69 2539.55 1087.13 2419.15 1087.13 2245.03L1109.39 1424.62C1172.38 1461.19 1241.91 1496.12 1317.97 1529.41L1534.12 1314.35C1486.73 1292.59 1443.03 1271.25 1403.02 1250.31C1318.04 1205.86 1251.54 1150.29 1203.51 1083.6C1159.18 1016.92 1137.01 931.708 1137.01 827.976V677.935C1137.01 566.793 1162.87 474.175 1214.6 400.081C1255.86 344.916 1324.76 310.287 1421.32 296.193L1543.87 83.3741ZM1749.14 1406.2L1532.96 1621.28C1603.8 1655.08 1662.08 1688.87 1707.82 1722.66C1781.71 1774.53 1831.59 1831.95 1857.45 1894.93C1883.31 1954.21 1896.24 2026.45 1896.24 2111.66V2267.26C1896.24 2426.56 1862.99 2539.55 1796.49 2606.24C1760.38 2644.57 1712.07 2671.89 1651.55 2688.19L1651.36 2688.24L1770.26 2894.75C1841.87 2880.88 1904.18 2860.66 1957.2 2834.08C2068.04 2778.51 2145.62 2698.86 2189.96 2595.13C2237.99 2487.69 2262 2359.88 2262 2211.69V1039.14V805.747C2262 635.33 2236.14 496.404 2184.41 388.967C2136.39 281.53 2058.8 203.731 1951.66 155.57C1903.27 133.044 1846.81 115.786 1782.26 103.796L1667.29 303.452C1736.07 319.874 1790.22 350.231 1829.74 394.524C1892.55 461.209 1923.95 587.169 1923.95 772.405L1950.34 1498.86L1950.34 1498.86C1891.5 1464.07 1833.69 1440.57 1762.8 1411.75L1762.79 1411.75L1762.66 1411.7C1758.21 1409.89 1753.7 1408.05 1749.14 1406.2ZM1972.3 1512.36C2057.28 1560.52 2141.93 1648.57 2189.96 1733.78C2206.46 1766.79 2205.78 1666.98 2204.87 1533.48V1533.48V1533.48V1533.47C2203.9 1390.13 2202.66 1207.96 2222.15 1109.68C2115.62 1293.8 1972.3 1512.36 1972.3 1512.36ZM797.535 1840.15L1087.13 1411.47C994.771 1355.9 920.88 1285.51 865.462 1200.3C850.385 1170.19 846.48 1262.3 841.056 1390.21C834.855 1536.45 826.67 1729.5 797.535 1840.15Z" fill="#A939F5"/>
</svg>
